<?xml version="1.0" encoding="UTF-8"?> <svg xmlns="http://www.w3.org/2000/svg" width="179" height="15" viewBox="0 0 179 15" fill="none"> <path d="M0.851562 12.1953L3.6875 0.351562H5.33594L2.46875 12.1953H0.851562Z" fill="black"></path> <path d="M5.30469 12.1953L8.14062 0.351562H9.78906L6.92188 12.1953H5.30469Z" fill="black"></path> <path d="M26.8047 3.35156L24.6797 3.58594C24.6276 3.14844 24.4922 2.82552 24.2734 2.61719C24.0547 2.40885 23.7708 2.30469 23.4219 2.30469C22.9583 2.30469 22.5651 2.51302 22.2422 2.92969C21.9245 3.34635 21.724 4.21354 21.6406 5.53125C22.1875 4.88542 22.8672 4.5625 23.6797 4.5625C24.5964 4.5625 25.3802 4.91146 26.0312 5.60938C26.6875 6.30729 27.0156 7.20833 27.0156 8.3125C27.0156 9.48438 26.6719 10.4245 25.9844 11.1328C25.2969 11.8411 24.4141 12.1953 23.3359 12.1953C22.1797 12.1953 21.2292 11.7474 20.4844 10.8516C19.7396 9.95052 19.3672 8.47656 19.3672 6.42969C19.3672 4.33073 19.7552 2.81771 20.5312 1.89062C21.3073 0.963542 22.3151 0.5 23.5547 0.5C24.4245 0.5 25.1432 0.744792 25.7109 1.23438C26.2839 1.71875 26.6484 2.42448 26.8047 3.35156ZM21.8281 8.14062C21.8281 8.85417 21.9922 9.40625 22.3203 9.79688C22.6484 10.1823 23.0234 10.375 23.4453 10.375C23.8516 10.375 24.1901 10.2161 24.4609 9.89844C24.7318 9.58073 24.8672 9.0599 24.8672 8.33594C24.8672 7.59115 24.7214 7.04688 24.4297 6.70312C24.138 6.35417 23.7734 6.17969 23.3359 6.17969C22.9141 6.17969 22.5573 6.34635 22.2656 6.67969C21.974 7.00781 21.8281 7.49479 21.8281 8.14062Z" fill="black"></path> <path d="M31.9844 0.5C33.0938 0.5 33.9609 0.895833 34.5859 1.6875C35.3307 2.625 35.7031 4.17969 35.7031 6.35156C35.7031 8.51823 35.3281 10.0755 34.5781 11.0234C33.9583 11.8047 33.0938 12.1953 31.9844 12.1953C30.8698 12.1953 29.9714 11.7682 29.2891 10.9141C28.6068 10.0547 28.2656 8.52604 28.2656 6.32812C28.2656 4.17188 28.6406 2.61979 29.3906 1.67188C30.0104 0.890625 30.875 0.5 31.9844 0.5ZM31.9844 2.32031C31.7188 2.32031 31.4818 2.40625 31.2734 2.57812C31.0651 2.74479 30.9036 3.04688 30.7891 3.48438C30.638 4.05208 30.5625 5.00781 30.5625 6.35156C30.5625 7.69531 30.6302 8.61979 30.7656 9.125C30.901 9.625 31.0703 9.95833 31.2734 10.125C31.4818 10.2917 31.7188 10.375 31.9844 10.375C32.25 10.375 32.487 10.2917 32.6953 10.125C32.9036 9.95312 33.0651 9.64844 33.1797 9.21094C33.3307 8.64844 33.4062 7.69531 33.4062 6.35156C33.4062 5.00781 33.3385 4.08594 33.2031 3.58594C33.0677 3.08073 32.8958 2.74479 32.6875 2.57812C32.4844 2.40625 32.25 2.32031 31.9844 2.32031Z" fill="black"></path> <path d="M37.6484 12V9.80469H39.8438V12H37.6484Z" fill="black"></path> <path d="M49.0469 9.96094V12H41.3516C41.4349 11.2292 41.6849 10.5 42.1016 9.8125C42.5182 9.11979 43.3411 8.20312 44.5703 7.0625C45.5599 6.14062 46.1667 5.51562 46.3906 5.1875C46.6927 4.73438 46.8438 4.28646 46.8438 3.84375C46.8438 3.35417 46.7109 2.97917 46.4453 2.71875C46.1849 2.45312 45.8229 2.32031 45.3594 2.32031C44.901 2.32031 44.5365 2.45833 44.2656 2.73438C43.9948 3.01042 43.8385 3.46875 43.7969 4.10938L41.6094 3.89062C41.7396 2.68229 42.1484 1.8151 42.8359 1.28906C43.5234 0.763021 44.3828 0.5 45.4141 0.5C46.5443 0.5 47.4323 0.804688 48.0781 1.41406C48.724 2.02344 49.0469 2.78125 49.0469 3.6875C49.0469 4.20312 48.9531 4.69531 48.7656 5.16406C48.5833 5.6276 48.2917 6.11458 47.8906 6.625C47.625 6.96354 47.1458 7.45052 46.4531 8.08594C45.7604 8.72135 45.3203 9.14323 45.1328 9.35156C44.9505 9.5599 44.8021 9.76302 44.6875 9.96094H49.0469Z" fill="black"></path> <path d="M50.5391 2.74219V0.703125H58.0469V2.29688C57.4271 2.90625 56.7969 3.78125 56.1562 4.92188C55.5156 6.0625 55.026 7.27604 54.6875 8.5625C54.3542 9.84375 54.1901 10.9896 54.1953 12H52.0781C52.1146 10.4167 52.4401 8.80208 53.0547 7.15625C53.6745 5.51042 54.5 4.03906 55.5312 2.74219H50.5391Z" fill="black"></path> <path d="M66.8594 9.96094V12H59.1641C59.2474 11.2292 59.4974 10.5 59.9141 9.8125C60.3307 9.11979 61.1536 8.20312 62.3828 7.0625C63.3724 6.14062 63.9792 5.51562 64.2031 5.1875C64.5052 4.73438 64.6562 4.28646 64.6562 3.84375C64.6562 3.35417 64.5234 2.97917 64.2578 2.71875C63.9974 2.45312 63.6354 2.32031 63.1719 2.32031C62.7135 2.32031 62.349 2.45833 62.0781 2.73438C61.8073 3.01042 61.651 3.46875 61.6094 4.10938L59.4219 3.89062C59.5521 2.68229 59.9609 1.8151 60.6484 1.28906C61.3359 0.763021 62.1953 0.5 63.2266 0.5C64.3568 0.5 65.2448 0.804688 65.8906 1.41406C66.5365 2.02344 66.8594 2.78125 66.8594 3.6875C66.8594 4.20312 66.7656 4.69531 66.5781 5.16406C66.3958 5.6276 66.1042 6.11458 65.7031 6.625C65.4375 6.96354 64.9583 7.45052 64.2656 8.08594C63.5729 8.72135 63.1328 9.14323 62.9453 9.35156C62.763 9.5599 62.6146 9.76302 62.5 9.96094H66.8594Z" fill="black"></path> <path d="M68.3828 9.05469L70.5703 8.82812C70.6328 9.32292 70.8177 9.71615 71.125 10.0078C71.4323 10.2943 71.7865 10.4375 72.1875 10.4375C72.6458 10.4375 73.0339 10.2526 73.3516 9.88281C73.6693 9.50781 73.8281 8.94531 73.8281 8.19531C73.8281 7.49219 73.6693 6.96615 73.3516 6.61719C73.0391 6.26302 72.6302 6.08594 72.125 6.08594C71.4948 6.08594 70.9297 6.36458 70.4297 6.92188L68.6484 6.66406L69.7734 0.703125H75.5781V2.75781H71.4375L71.0938 4.70312C71.5833 4.45833 72.0833 4.33594 72.5938 4.33594C73.5677 4.33594 74.3932 4.6901 75.0703 5.39844C75.7474 6.10677 76.0859 7.02604 76.0859 8.15625C76.0859 9.09896 75.8125 9.9401 75.2656 10.6797C74.5208 11.6901 73.487 12.1953 72.1641 12.1953C71.1068 12.1953 70.2448 11.9115 69.5781 11.3438C68.9115 10.776 68.513 10.013 68.3828 9.05469Z" fill="black"></path> <path d="M77.2578 2.74219V0.703125H84.7656V2.29688C84.1458 2.90625 83.5156 3.78125 82.875 4.92188C82.2344 6.0625 81.7448 7.27604 81.4062 8.5625C81.0729 9.84375 80.9089 10.9896 80.9141 12H78.7969C78.8333 10.4167 79.1589 8.80208 79.7734 7.15625C80.3932 5.51042 81.2188 4.03906 82.25 2.74219H77.2578Z" fill="black"></path> <path d="M88.0469 5.82031C87.4792 5.58073 87.0651 5.2526 86.8047 4.83594C86.5495 4.41406 86.4219 3.95312 86.4219 3.45312C86.4219 2.59896 86.7188 1.89323 87.3125 1.33594C87.9115 0.778646 88.7604 0.5 89.8594 0.5C90.9479 0.5 91.7917 0.778646 92.3906 1.33594C92.9948 1.89323 93.2969 2.59896 93.2969 3.45312C93.2969 3.98438 93.1589 4.45833 92.8828 4.875C92.6068 5.28646 92.2188 5.60156 91.7188 5.82031C92.3542 6.07552 92.8359 6.44792 93.1641 6.9375C93.4974 7.42708 93.6641 7.99219 93.6641 8.63281C93.6641 9.6901 93.3255 10.5495 92.6484 11.2109C91.9766 11.8724 91.0807 12.2031 89.9609 12.2031C88.9193 12.2031 88.0521 11.9297 87.3594 11.3828C86.5417 10.737 86.1328 9.85156 86.1328 8.72656C86.1328 8.10677 86.2865 7.53906 86.5938 7.02344C86.901 6.5026 87.3854 6.10156 88.0469 5.82031ZM88.5 3.60938C88.5 4.04688 88.6224 4.38802 88.8672 4.63281C89.1172 4.8776 89.4479 5 89.8594 5C90.276 5 90.6094 4.8776 90.8594 4.63281C91.1094 4.38281 91.2344 4.03906 91.2344 3.60156C91.2344 3.1901 91.1094 2.86198 90.8594 2.61719C90.6146 2.36719 90.2891 2.24219 89.8828 2.24219C89.4609 2.24219 89.125 2.36719 88.875 2.61719C88.625 2.86719 88.5 3.19792 88.5 3.60938ZM88.2969 8.51562C88.2969 9.11979 88.4505 9.59115 88.7578 9.92969C89.0703 10.2682 89.4583 10.4375 89.9219 10.4375C90.375 10.4375 90.75 10.276 91.0469 9.95312C91.3438 9.625 91.4922 9.15365 91.4922 8.53906C91.4922 8.0026 91.3411 7.57292 91.0391 7.25C90.737 6.92188 90.3542 6.75781 89.8906 6.75781C89.3542 6.75781 88.9531 6.94271 88.6875 7.3125C88.4271 7.68229 88.2969 8.08333 88.2969 8.51562Z" fill="black"></path> <path d="M95.4844 9.80469H97.6797V11.375C97.6797 12.0104 97.625 12.5104 97.5156 12.875C97.4062 13.2448 97.1979 13.5755 96.8906 13.8672C96.5885 14.1589 96.2031 14.388 95.7344 14.5547L95.3047 13.6484C95.7474 13.5026 96.0625 13.3021 96.25 13.0469C96.4375 12.7917 96.5365 12.4427 96.5469 12H95.4844V9.80469Z" fill="black"></path> <path d="M111.391 9.96094V12H103.695C103.779 11.2292 104.029 10.5 104.445 9.8125C104.862 9.11979 105.685 8.20312 106.914 7.0625C107.904 6.14062 108.51 5.51562 108.734 5.1875C109.036 4.73438 109.188 4.28646 109.188 3.84375C109.188 3.35417 109.055 2.97917 108.789 2.71875C108.529 2.45312 108.167 2.32031 107.703 2.32031C107.245 2.32031 106.88 2.45833 106.609 2.73438C106.339 3.01042 106.182 3.46875 106.141 4.10938L103.953 3.89062C104.083 2.68229 104.492 1.8151 105.18 1.28906C105.867 0.763021 106.727 0.5 107.758 0.5C108.888 0.5 109.776 0.804688 110.422 1.41406C111.068 2.02344 111.391 2.78125 111.391 3.6875C111.391 4.20312 111.297 4.69531 111.109 5.16406C110.927 5.6276 110.635 6.11458 110.234 6.625C109.969 6.96354 109.49 7.45052 108.797 8.08594C108.104 8.72135 107.664 9.14323 107.477 9.35156C107.294 9.5599 107.146 9.76302 107.031 9.96094H111.391Z" fill="black"></path> <path d="M117.188 12V9.69531H112.5V7.77344L117.469 0.5H119.312V7.76562H120.734V9.69531H119.312V12H117.188ZM117.188 7.76562V3.85156L114.555 7.76562H117.188Z" fill="black"></path> <path d="M122.258 12V9.80469H124.453V12H122.258Z" fill="black"></path> <path d="M126.289 9.35156L128.414 9.11719C128.466 9.54948 128.602 9.86979 128.82 10.0781C129.039 10.2865 129.328 10.3906 129.688 10.3906C130.141 10.3906 130.526 10.1823 130.844 9.76562C131.161 9.34896 131.365 8.48438 131.453 7.17188C130.901 7.8125 130.211 8.13281 129.383 8.13281C128.482 8.13281 127.703 7.78646 127.047 7.09375C126.396 6.39583 126.07 5.48958 126.07 4.375C126.07 3.21354 126.414 2.27865 127.102 1.57031C127.794 0.856771 128.674 0.5 129.742 0.5C130.904 0.5 131.857 0.950521 132.602 1.85156C133.346 2.7474 133.719 4.22396 133.719 6.28125C133.719 8.375 133.331 9.88542 132.555 10.8125C131.779 11.7396 130.768 12.2031 129.523 12.2031C128.628 12.2031 127.904 11.9661 127.352 11.4922C126.799 11.013 126.445 10.2995 126.289 9.35156ZM131.258 4.55469C131.258 3.84635 131.094 3.29688 130.766 2.90625C130.443 2.51562 130.068 2.32031 129.641 2.32031C129.234 2.32031 128.896 2.48177 128.625 2.80469C128.359 3.1224 128.227 3.64583 128.227 4.375C128.227 5.11458 128.372 5.65885 128.664 6.00781C128.956 6.35156 129.32 6.52344 129.758 6.52344C130.18 6.52344 130.534 6.35677 130.82 6.02344C131.112 5.6901 131.258 5.20052 131.258 4.55469Z" fill="black"></path> <path d="M142.586 3.35156L140.461 3.58594C140.409 3.14844 140.273 2.82552 140.055 2.61719C139.836 2.40885 139.552 2.30469 139.203 2.30469C138.74 2.30469 138.346 2.51302 138.023 2.92969C137.706 3.34635 137.505 4.21354 137.422 5.53125C137.969 4.88542 138.648 4.5625 139.461 4.5625C140.378 4.5625 141.161 4.91146 141.812 5.60938C142.469 6.30729 142.797 7.20833 142.797 8.3125C142.797 9.48438 142.453 10.4245 141.766 11.1328C141.078 11.8411 140.195 12.1953 139.117 12.1953C137.961 12.1953 137.01 11.7474 136.266 10.8516C135.521 9.95052 135.148 8.47656 135.148 6.42969C135.148 4.33073 135.536 2.81771 136.312 1.89062C137.089 0.963542 138.096 0.5 139.336 0.5C140.206 0.5 140.924 0.744792 141.492 1.23438C142.065 1.71875 142.43 2.42448 142.586 3.35156ZM137.609 8.14062C137.609 8.85417 137.773 9.40625 138.102 9.79688C138.43 10.1823 138.805 10.375 139.227 10.375C139.633 10.375 139.971 10.2161 140.242 9.89844C140.513 9.58073 140.648 9.0599 140.648 8.33594C140.648 7.59115 140.503 7.04688 140.211 6.70312C139.919 6.35417 139.555 6.17969 139.117 6.17969C138.695 6.17969 138.339 6.34635 138.047 6.67969C137.755 7.00781 137.609 7.49479 137.609 8.14062Z" fill="black"></path> <path d="M143.977 8.96094L146.102 8.70312C146.169 9.24479 146.352 9.65885 146.648 9.94531C146.945 10.2318 147.305 10.375 147.727 10.375C148.18 10.375 148.56 10.2031 148.867 9.85938C149.18 9.51562 149.336 9.05208 149.336 8.46875C149.336 7.91667 149.188 7.47917 148.891 7.15625C148.594 6.83333 148.232 6.67188 147.805 6.67188C147.523 6.67188 147.188 6.72656 146.797 6.83594L147.039 5.04688C147.633 5.0625 148.086 4.9349 148.398 4.66406C148.711 4.38802 148.867 4.02344 148.867 3.57031C148.867 3.1849 148.753 2.8776 148.523 2.64844C148.294 2.41927 147.99 2.30469 147.609 2.30469C147.234 2.30469 146.914 2.4349 146.648 2.69531C146.383 2.95573 146.221 3.33594 146.164 3.83594L144.141 3.49219C144.281 2.79948 144.492 2.2474 144.773 1.83594C145.06 1.41927 145.456 1.09375 145.961 0.859375C146.471 0.619792 147.042 0.5 147.672 0.5C148.75 0.5 149.615 0.84375 150.266 1.53125C150.802 2.09375 151.07 2.72917 151.07 3.4375C151.07 4.44271 150.521 5.24479 149.422 5.84375C150.078 5.98438 150.602 6.29948 150.992 6.78906C151.388 7.27865 151.586 7.86979 151.586 8.5625C151.586 9.56771 151.219 10.4245 150.484 11.1328C149.75 11.8411 148.836 12.1953 147.742 12.1953C146.706 12.1953 145.846 11.8984 145.164 11.3047C144.482 10.7057 144.086 9.92448 143.977 8.96094Z" fill="black"></path> <path d="M153.008 9.35156L155.133 9.11719C155.185 9.54948 155.32 9.86979 155.539 10.0781C155.758 10.2865 156.047 10.3906 156.406 10.3906C156.859 10.3906 157.245 10.1823 157.562 9.76562C157.88 9.34896 158.083 8.48438 158.172 7.17188C157.62 7.8125 156.93 8.13281 156.102 8.13281C155.201 8.13281 154.422 7.78646 153.766 7.09375C153.115 6.39583 152.789 5.48958 152.789 4.375C152.789 3.21354 153.133 2.27865 153.82 1.57031C154.513 0.856771 155.393 0.5 156.461 0.5C157.622 0.5 158.576 0.950521 159.32 1.85156C160.065 2.7474 160.438 4.22396 160.438 6.28125C160.438 8.375 160.049 9.88542 159.273 10.8125C158.497 11.7396 157.487 12.2031 156.242 12.2031C155.346 12.2031 154.622 11.9661 154.07 11.4922C153.518 11.013 153.164 10.2995 153.008 9.35156ZM157.977 4.55469C157.977 3.84635 157.812 3.29688 157.484 2.90625C157.161 2.51562 156.786 2.32031 156.359 2.32031C155.953 2.32031 155.615 2.48177 155.344 2.80469C155.078 3.1224 154.945 3.64583 154.945 4.375C154.945 5.11458 155.091 5.65885 155.383 6.00781C155.674 6.35156 156.039 6.52344 156.477 6.52344C156.898 6.52344 157.253 6.35677 157.539 6.02344C157.831 5.6901 157.977 5.20052 157.977 4.55469Z" fill="black"></path> <path d="M161.867 2.74219V0.703125H169.375V2.29688C168.755 2.90625 168.125 3.78125 167.484 4.92188C166.844 6.0625 166.354 7.27604 166.016 8.5625C165.682 9.84375 165.518 10.9896 165.523 12H163.406C163.443 10.4167 163.768 8.80208 164.383 7.15625C165.003 5.51042 165.828 4.03906 166.859 2.74219H161.867Z" fill="black"></path> <path d="M170.805 9.05469L172.992 8.82812C173.055 9.32292 173.24 9.71615 173.547 10.0078C173.854 10.2943 174.208 10.4375 174.609 10.4375C175.068 10.4375 175.456 10.2526 175.773 9.88281C176.091 9.50781 176.25 8.94531 176.25 8.19531C176.25 7.49219 176.091 6.96615 175.773 6.61719C175.461 6.26302 175.052 6.08594 174.547 6.08594C173.917 6.08594 173.352 6.36458 172.852 6.92188L171.07 6.66406L172.195 0.703125H178V2.75781H173.859L173.516 4.70312C174.005 4.45833 174.505 4.33594 175.016 4.33594C175.99 4.33594 176.815 4.6901 177.492 5.39844C178.169 6.10677 178.508 7.02604 178.508 8.15625C178.508 9.09896 178.234 9.9401 177.688 10.6797C176.943 11.6901 175.909 12.1953 174.586 12.1953C173.529 12.1953 172.667 11.9115 172 11.3438C171.333 10.776 170.935 10.013 170.805 9.05469Z" fill="black"></path> </svg> 