<?xml version="1.0" encoding="UTF-8"?> <svg xmlns="http://www.w3.org/2000/svg" width="54" height="173" viewBox="0 0 54 173" fill="none"> <path d="M49.0345 158.381L54 158.381C52.9091 163.354 50.2382 167.042 45.9875 169.445C41.7367 171.815 36.3574 173 29.8495 173C23.3417 173 17.9812 171.815 13.768 169.445C9.51724 167.042 6.84639 163.354 5.75549 158.381L10.721 158.381C11.8495 161.919 14.0125 164.389 17.21 165.791C20.3699 167.193 24.5831 167.893 29.8495 167.893C35.1536 167.893 39.4044 167.193 42.6019 165.791C45.7618 164.389 47.906 161.919 49.0345 158.381Z" fill="black"></path> <path d="M49.0345 151.304C47.906 147.766 45.7618 145.297 42.6019 143.895C39.4044 142.493 35.1536 141.792 29.8495 141.792C24.5831 141.792 20.3699 142.493 17.21 143.895C14.0125 145.297 11.8495 147.766 10.721 151.304L5.75549 151.304C6.84639 146.331 9.51724 142.66 13.768 140.29C17.9812 137.887 23.3417 136.686 29.8495 136.686C36.3574 136.686 41.7367 137.887 45.9875 140.29C50.2382 142.66 52.9091 146.331 54 151.304L49.0345 151.304Z" fill="black"></path> <path d="M24.489 114.439L7.61755 118.494L7.61755 120.146L24.489 124.202L24.489 129.609L5.75549 124.452L5.75549 114.189L24.489 109.082L24.489 114.439Z" fill="black"></path> <path d="M46.3824 60.1411L50.2759 65.2476L41.9248 71.005C44.9342 74.7431 46.4389 79.2989 46.4389 84.6725C46.4389 89.9459 45.1223 94.1679 42.489 97.3387C39.8182 100.509 36.094 102.095 31.3166 102.095C27.5925 102.095 24.7147 101.11 22.6834 99.141C20.6144 97.1384 19.5799 94.7854 19.5799 92.0819C19.5799 89.4786 20.652 87.3259 22.7962 85.6237L20.9342 85.6237L9.19749 93.7841L5.75549 93.8342L5.75549 66.8997L12.0752 66.8997L12.0752 84.9728L31.7116 70.7546C28.1003 68.919 23.6426 68.0011 18.3386 68.0011L18.3386 61.5929C25.9749 61.5929 32.2947 63.2951 37.2978 66.6994L46.3824 60.1411ZM40.1191 84.6725C40.1191 80.6673 38.9906 77.3297 36.7335 74.6596L30.1317 79.2155C27.9875 80.684 26.4639 82.1359 25.5611 83.571C24.6583 84.9728 24.2069 86.6083 24.2069 88.4773C24.2069 90.58 24.8652 92.2989 26.1818 93.6339C27.4608 94.969 29.2476 95.6365 31.5423 95.6365C34.326 95.6365 36.4514 94.6853 37.9185 92.7828C39.3856 90.8804 40.1191 88.1769 40.1191 84.6725Z" fill="black"></path> <path d="M1.81525e-06 20.7766L1.97492 16.1206L52.0815 32.3414L50.0502 36.9974L1.81525e-06 20.7766ZM24.9404 33.9935C27.348 36.0628 28.5517 38.7329 28.5517 42.0038C28.5517 45.2746 27.348 47.9447 24.9404 50.014C22.4953 52.0833 19.5235 53.118 16.0251 53.118C12.5266 53.118 9.57367 52.0833 7.16615 50.014C4.721 47.9447 3.49843 45.2746 3.49843 42.0038C3.49843 38.7329 4.721 36.0628 7.16615 33.9935C9.57367 31.9242 12.5266 30.8895 16.0251 30.8895C19.5235 30.8895 22.4953 31.9242 24.9404 33.9935ZM22.9655 42.0038C22.9655 40.2015 22.2884 38.7162 20.9342 37.5481C19.5799 36.3799 17.9436 35.7958 16.0251 35.7958C14.1066 35.7958 12.4702 36.3799 11.116 37.5481C9.76176 38.7162 9.08464 40.2015 9.08464 42.0038C9.08464 43.7727 9.76176 45.2413 11.116 46.4094C12.4702 47.5776 14.1066 48.1617 16.0251 48.1617C17.9436 48.1617 19.5799 47.5776 20.9342 46.4094C22.2884 45.2413 22.9655 43.7727 22.9655 42.0038ZM44.7461 3.10397C47.1536 5.17328 48.3574 7.84337 48.3574 11.1142C48.3574 14.3851 47.1536 17.0552 44.7461 19.1245C42.3009 21.1938 39.3291 22.2285 35.8307 22.2285C32.3323 22.2285 29.3793 21.1938 26.9718 19.1245C24.5266 17.0552 23.3041 14.3851 23.3041 11.1142C23.3041 7.84337 24.5266 5.17328 26.9718 3.10397C29.3793 1.03465 32.3323 3.79551e-06 35.8307 3.83723e-06C39.3292 3.87895e-06 42.3009 1.03465 44.7461 3.10397ZM40.7398 15.5699C42.094 14.4018 42.7712 12.9165 42.7712 11.1142C42.7712 9.31191 42.094 7.84336 40.7398 6.70857C39.3856 5.54041 37.7492 4.95633 35.8307 4.95633C33.9122 4.95633 32.2759 5.54041 30.9216 6.70857C29.5674 7.84336 28.8903 9.31191 28.8903 11.1142C28.8903 12.9165 29.5674 14.4018 30.9216 15.5699C32.2759 16.7047 33.9122 17.2721 35.8307 17.2721C37.7492 17.2721 39.3856 16.7047 40.7398 15.5699Z" fill="black"></path> </svg> 