<?xml version="1.0" encoding="UTF-8"?> <svg xmlns="http://www.w3.org/2000/svg" width="102" height="102" viewBox="0 0 102 102" fill="none"> <path d="M51.0126 25.9437V25.4437C50.7364 25.4437 50.5126 25.6676 50.5126 25.9437H51.0126ZM51.0126 50.8874V51.3874C51.2887 51.3874 51.5126 51.1636 51.5126 50.8874H51.0126ZM75.9563 25.9437V26.4437C76.2324 26.4437 76.4563 26.2199 76.4563 25.9437H75.9563ZM76.0563 51.0126H76.5563C76.5563 50.7364 76.3324 50.5126 76.0563 50.5126V51.0126ZM51.1126 51.0126H50.6126C50.6126 51.2887 50.8364 51.5126 51.1126 51.5126V51.0126ZM76.0563 75.9563H75.5563C75.5563 76.2324 75.7801 76.4563 76.0563 76.4563V75.9563ZM51.0126 76.0563V76.5563C51.2887 76.5563 51.5126 76.3324 51.5126 76.0563H51.0126ZM51.0126 51.1126V50.6126C50.7364 50.6126 50.5126 50.8364 50.5126 51.1126H51.0126ZM26.0689 76.0563V75.5563C25.7927 75.5563 25.5689 75.7801 25.5689 76.0563H26.0689ZM25.9437 51.0126H25.4437C25.4437 51.2887 25.6676 51.5126 25.9437 51.5126V51.0126ZM50.8874 51.0126H51.3874C51.3874 50.7364 51.1636 50.5126 50.8874 50.5126V51.0126ZM25.9437 26.0689H26.4437C26.4437 25.7927 26.2199 25.5689 25.9437 25.5689V26.0689ZM50.5126 25.9437V50.8874H51.5126V25.9437H50.5126ZM51.0126 50.3874C37.5034 50.3874 26.5689 39.4529 26.5689 25.9437H25.5689C25.5689 40.0052 36.9511 51.3874 51.0126 51.3874V50.3874ZM26.5689 25.9437C26.5689 12.4345 37.5034 1.5 51.0126 1.5V0.5C36.9511 0.5 25.5689 11.8822 25.5689 25.9437H26.5689ZM51.0126 1.5C64.5218 1.5 75.4563 12.4345 75.4563 25.9437H76.4563C76.4563 11.8822 65.0741 0.5 51.0126 0.5V1.5ZM75.9563 25.4437H51.0126V26.4437H75.9563V25.4437ZM76.0563 50.5126H51.1126V51.5126H76.0563V50.5126ZM51.6126 51.0126C51.6126 37.5034 62.5471 26.5689 76.0563 26.5689V25.5689C61.9948 25.5689 50.6126 36.9511 50.6126 51.0126H51.6126ZM76.0563 26.5689C89.5655 26.5689 100.5 37.5034 100.5 51.0126H101.5C101.5 36.9511 90.1178 25.5689 76.0563 25.5689V26.5689ZM100.5 51.0126C100.5 64.5218 89.5655 75.4563 76.0563 75.4563V76.4563C90.1178 76.4563 101.5 65.0741 101.5 51.0126H100.5ZM76.5563 75.9563V51.0126H75.5563V75.9563H76.5563ZM51.5126 76.0563V51.1126H50.5126V76.0563H51.5126ZM51.0126 51.6126C64.5218 51.6126 75.4563 62.5471 75.4563 76.0563H76.4563C76.4563 61.9948 65.0741 50.6126 51.0126 50.6126V51.6126ZM75.4563 76.0563C75.4563 89.5655 64.5218 100.5 51.0126 100.5V101.5C65.0741 101.5 76.4563 90.1178 76.4563 76.0563H75.4563ZM51.0126 100.5C37.5034 100.5 26.5689 89.5655 26.5689 76.0563H25.5689C25.5689 90.1178 36.9511 101.5 51.0126 101.5V100.5ZM26.0689 76.5563H51.0126V75.5563H26.0689V76.5563ZM25.9437 51.5126H50.8874V50.5126H25.9437V51.5126ZM50.3874 51.0126C50.3874 64.5218 39.4529 75.4563 25.9437 75.4563V76.4563C40.0052 76.4563 51.3874 65.0741 51.3874 51.0126H50.3874ZM25.9437 75.4563C12.4345 75.4563 1.5 64.5218 1.5 51.0126H0.5C0.5 65.0741 11.8822 76.4563 25.9437 76.4563V75.4563ZM1.5 51.0126C1.5 37.5034 12.4345 26.5689 25.9437 26.5689V25.5689C11.8822 25.5689 0.5 36.9511 0.5 51.0126H1.5ZM25.4437 26.0689V51.0126H26.4437V26.0689H25.4437Z" fill="black"></path> </svg> 