<?xml version="1.0" encoding="UTF-8"?> <svg xmlns="http://www.w3.org/2000/svg" width="260" height="120" viewBox="0 0 260 120" fill="none"> <path d="M61 0.499969C62.7851 0.499969 64.629 1.9592 66.4082 4.96948C68.1677 7.94629 69.7696 12.2871 71.1215 17.6948C73.8235 28.5026 75.5 43.46 75.5 60C75.5 76.5399 73.8235 91.4973 71.1215 102.305C69.7696 107.713 68.1677 112.054 66.4082 115.03C64.629 118.041 62.7852 119.5 61 119.5C59.2148 119.5 57.371 118.041 55.5918 115.03C53.8323 112.054 52.2304 107.713 50.8785 102.305C48.1765 91.4973 46.5 76.5399 46.5 60C46.5 43.46 48.1765 28.5026 50.8785 17.6948C52.2304 12.2871 53.8323 7.94629 55.5918 4.96948C57.371 1.95921 59.2148 0.499969 61 0.499969Z" stroke="#1E1E1E"></path> <path d="M84 0.499969C85.7851 0.499969 87.629 1.9592 89.4082 4.96948C91.1677 7.94629 92.7696 12.2871 94.1215 17.6948C96.8235 28.5026 98.5 43.46 98.5 60C98.5 76.5399 96.8235 91.4973 94.1215 102.305C92.7696 107.713 91.1677 112.054 89.4082 115.03C87.629 118.041 85.7852 119.5 84 119.5C82.2148 119.5 80.371 118.041 78.5918 115.03C76.8323 112.054 75.2304 107.713 73.8785 102.305C71.1765 91.4973 69.5 76.5399 69.5 60C69.5 43.46 71.1765 28.5026 73.8785 17.6948C75.2304 12.2871 76.8323 7.94629 78.5918 4.96948C80.371 1.95921 82.2148 0.499969 84 0.499969Z" stroke="#1E1E1E"></path> <path d="M107 0.499969C108.785 0.499969 110.629 1.9592 112.408 4.96948C114.168 7.94629 115.77 12.2871 117.122 17.6948C119.823 28.5026 121.5 43.46 121.5 60C121.5 76.5399 119.823 91.4973 117.122 102.305C115.77 107.713 114.168 112.054 112.408 115.03C110.629 118.041 108.785 119.5 107 119.5C105.215 119.5 103.371 118.041 101.592 115.03C99.8323 112.054 98.2304 107.713 96.8785 102.305C94.1765 91.4973 92.5 76.5399 92.5 60C92.5 43.46 94.1765 28.5026 96.8785 17.6948C98.2304 12.2871 99.8323 7.94629 101.592 4.96948C103.371 1.95921 105.215 0.499969 107 0.499969Z" stroke="#1E1E1E"></path> <path d="M15 0.499999C16.7851 0.499999 18.629 1.95924 20.4082 4.96951C22.1677 7.94632 23.7696 12.2871 25.1215 17.6949C27.8235 28.5027 29.5 43.46 29.5 60C29.5 76.54 27.8235 91.4973 25.1215 102.305C23.7696 107.713 22.1677 112.054 20.4082 115.03C18.629 118.041 16.7852 119.5 15 119.5C13.2148 119.5 11.371 118.041 9.59176 115.03C7.83227 112.054 6.23041 107.713 4.87847 102.305C2.17652 91.4973 0.499998 76.54 0.499997 60C0.499997 43.46 2.17651 28.5027 4.87846 17.6949C6.2304 12.2871 7.83226 7.94632 9.59175 4.96951C11.371 1.95924 13.2148 0.499999 15 0.499999Z" stroke="#1E1E1E"></path> <path d="M130 0.499969C131.785 0.499969 133.629 1.9592 135.408 4.96948C137.168 7.94629 138.77 12.2871 140.122 17.6948C142.823 28.5026 144.5 43.46 144.5 60C144.5 76.5399 142.823 91.4973 140.122 102.305C138.77 107.713 137.168 112.054 135.408 115.03C133.629 118.041 131.785 119.5 130 119.5C128.215 119.5 126.371 118.041 124.592 115.03C122.832 112.054 121.23 107.713 119.878 102.305C117.177 91.4973 115.5 76.5399 115.5 60C115.5 43.46 117.177 28.5026 119.878 17.6948C121.23 12.2871 122.832 7.94629 124.592 4.96948C126.371 1.95921 128.215 0.499969 130 0.499969Z" stroke="#1E1E1E"></path> <path d="M38 0.499999C39.7851 0.499999 41.629 1.95924 43.4082 4.96951C45.1677 7.94632 46.7696 12.2871 48.1215 17.6949C50.8235 28.5027 52.5 43.46 52.5 60C52.5 76.54 50.8235 91.4973 48.1215 102.305C46.7696 107.713 45.1677 112.054 43.4082 115.03C41.629 118.041 39.7852 119.5 38 119.5C36.2148 119.5 34.371 118.041 32.5918 115.03C30.8323 112.054 29.2304 107.713 27.8785 102.305C25.1765 91.4973 23.5 76.54 23.5 60C23.5 43.46 25.1765 28.5027 27.8785 17.6949C29.2304 12.2871 30.8323 7.94632 32.5918 4.96951C34.371 1.95924 36.2148 0.499999 38 0.499999Z" stroke="#1E1E1E"></path> <path d="M153 0.499969C154.785 0.499969 156.629 1.9592 158.408 4.96948C160.168 7.94629 161.77 12.2871 163.122 17.6948C165.823 28.5026 167.5 43.46 167.5 60C167.5 76.5399 165.823 91.4973 163.122 102.305C161.77 107.713 160.168 112.054 158.408 115.03C156.629 118.041 154.785 119.5 153 119.5C151.215 119.5 149.371 118.041 147.592 115.03C145.832 112.054 144.23 107.713 142.878 102.305C140.177 91.4973 138.5 76.5399 138.5 60C138.5 43.46 140.177 28.5026 142.878 17.6948C144.23 12.2871 145.832 7.94629 147.592 4.96948C149.371 1.95921 151.215 0.499969 153 0.499969Z" stroke="#1E1E1E"></path> <path d="M245 0.499969C246.785 0.499969 248.629 1.9592 250.408 4.96948C252.168 7.94629 253.77 12.2871 255.122 17.6948C257.823 28.5026 259.5 43.46 259.5 60C259.5 76.5399 257.823 91.4973 255.122 102.305C253.77 107.713 252.168 112.054 250.408 115.03C248.629 118.041 246.785 119.5 245 119.5C243.215 119.5 241.371 118.041 239.592 115.03C237.832 112.054 236.23 107.713 234.878 102.305C232.177 91.4973 230.5 76.5399 230.5 60C230.5 43.46 232.177 28.5026 234.878 17.6948C236.23 12.2871 237.832 7.94629 239.592 4.96948C241.371 1.95921 243.215 0.499969 245 0.499969Z" stroke="#1E1E1E"></path> <path d="M176 0.499969C177.785 0.499969 179.629 1.9592 181.408 4.96948C183.168 7.94629 184.77 12.2871 186.122 17.6948C188.823 28.5026 190.5 43.46 190.5 60C190.5 76.5399 188.823 91.4973 186.122 102.305C184.77 107.713 183.168 112.054 181.408 115.03C179.629 118.041 177.785 119.5 176 119.5C174.215 119.5 172.371 118.041 170.592 115.03C168.832 112.054 167.23 107.713 165.878 102.305C163.177 91.4973 161.5 76.5399 161.5 60C161.5 43.46 163.177 28.5026 165.878 17.6948C167.23 12.2871 168.832 7.94629 170.592 4.96948C172.371 1.95921 174.215 0.499969 176 0.499969Z" stroke="#1E1E1E"></path> <path d="M199 0.499969C200.785 0.499969 202.629 1.9592 204.408 4.96948C206.168 7.94629 207.77 12.2871 209.122 17.6948C211.823 28.5026 213.5 43.46 213.5 60C213.5 76.5399 211.823 91.4973 209.122 102.305C207.77 107.713 206.168 112.054 204.408 115.03C202.629 118.041 200.785 119.5 199 119.5C197.215 119.5 195.371 118.041 193.592 115.03C191.832 112.054 190.23 107.713 188.878 102.305C186.177 91.4973 184.5 76.5399 184.5 60C184.5 43.46 186.177 28.5026 188.878 17.6948C190.23 12.2871 191.832 7.94629 193.592 4.96948C195.371 1.95921 197.215 0.499969 199 0.499969Z" stroke="#1E1E1E"></path> <path d="M222 0.499969C223.785 0.499969 225.629 1.9592 227.408 4.96948C229.168 7.94629 230.77 12.2871 232.122 17.6948C234.823 28.5026 236.5 43.46 236.5 60C236.5 76.5399 234.823 91.4973 232.122 102.305C230.77 107.713 229.168 112.054 227.408 115.03C225.629 118.041 223.785 119.5 222 119.5C220.215 119.5 218.371 118.041 216.592 115.03C214.832 112.054 213.23 107.713 211.878 102.305C209.177 91.4973 207.5 76.5399 207.5 60C207.5 43.46 209.177 28.5026 211.878 17.6948C213.23 12.2871 214.832 7.94629 216.592 4.96948C218.371 1.95921 220.215 0.499969 222 0.499969Z" stroke="#1E1E1E"></path> </svg> 