<?xml version="1.0" encoding="UTF-8"?> <svg xmlns="http://www.w3.org/2000/svg" width="579" height="156" viewBox="0 0 579 156" fill="none"> <mask id="mask0" mask-type="alpha" maskUnits="userSpaceOnUse" x="0" y="0" width="579" height="156"> <rect width="579" height="156" fill="#C4C4C4"></rect> </mask> <g mask="url(#mask0)"> <path d="M-96 58L6 -46H-1.08837L-96 50.7726V58Z" fill="black"></path> <path d="M-96 77L26 -46H18.8535L-96 69.7949V77Z" fill="black"></path> <path d="M-84.7472 83L71 -71.7917V-79L-92 83H-84.7472Z" fill="black"></path> <path d="M-65.7746 83L100 -80.8581V-88L-73 83H-65.7746Z" fill="black"></path> <path d="M-44.8353 83L122 -83.8336V-91L-52 83H-44.8353Z" fill="black"></path> <path d="M-25.7943 83L126 -66.885V-74L-33 83H-25.7943Z" fill="black"></path> <path d="M-6.81643 83L140 -63.8164V-71L-14 83H-6.81643Z" fill="black"></path> <path d="M-11.8229 107L155 -59.8231V-67L-19 107H-11.8229Z" fill="black"></path> <path d="M-5.49976 119.581L173 -59.8709V-67L-12.5811 119.581H-5.49976Z" fill="black"></path> <path d="M-20.4998 151.677L192 -59.8709V-67L-27.6768 151.677H-20.4998Z" fill="black"></path> <path d="M140.081 190L389 -59.8709V-67L133 190H140.081Z" fill="black"></path> <path d="M354.773 171.5L589 -59.8709V-67L347.5 171.5H354.773Z" fill="black"></path> <path d="M-4.49969 154.629L210 -59.8709V-67L-11.6289 154.629H-4.49969Z" fill="black"></path> <path d="M147.5 200.629L408 -59.8709V-67L140.371 200.629H147.5Z" fill="black"></path> <path d="M363.5 181.581L604 -59.8709V-67L356.419 181.581H363.5Z" fill="black"></path> <path d="M-28.9186 197L227 -59.8709V-67L-36 197H-28.9186Z" fill="black"></path> <path d="M195.5 168.725L426 -59.8709V-67L188.275 168.725H195.5Z" fill="black"></path> <path d="M373.677 188.5L623 -59.8709V-67L366.5 188.5H373.677Z" fill="black"></path> <path d="M-5.37079 190.5L245 -59.8709V-67L-12.5 190.5H-5.37079Z" fill="black"></path> <path d="M208.5 173.725L444 -59.8709V-67L201.275 173.725H208.5Z" fill="black"></path> <path d="M407.177 173L641 -59.8709V-67L400 173H407.177Z" fill="black"></path> <path d="M28.0814 176L263 -59.8709V-67L21 176H28.0814Z" fill="black"></path> <path d="M205.725 194.5L462 -59.8709V-67L198.5 194.5H205.725Z" fill="black"></path> <path d="M409.081 190L658 -59.8709V-67L402 190H409.081Z" fill="black"></path> <path d="M51.0002 170.177L282 -59.8709V-67L43.8232 170.177H51.0002Z" fill="black"></path> <path d="M225.129 194L479 -59.8709V-67L218 194H225.129Z" fill="black"></path> <path d="M431.725 183.5L677 -59.8709V-67L424.5 183.5H431.725Z" fill="black"></path> <path d="M65.0003 175.081L299 -59.8709V-67L57.9189 175.081H65.0003Z" fill="black"></path> <path d="M220.725 215.5L498 -59.8709V-67L213.5 215.5H220.725Z" fill="black"></path> <path d="M441.677 192.5L695 -59.8709V-67L434.5 192.5H441.677Z" fill="black"></path> <path d="M59.5002 197.629L317 -59.8709V-67L52.371 197.629H59.5002Z" fill="black"></path> <path d="M280.5 174.677L516 -59.8709V-67L273.323 174.677H280.5Z" fill="black"></path> <path d="M467.225 185L714 -59.8709V-67L460 185H467.225Z" fill="black"></path> <path d="M486.225 185L733 -59.8709V-67L479 185H486.225Z" fill="black"></path> <path d="M505.225 185L752 -59.8709V-67L498 185H505.225Z" fill="black"></path> <path d="M524.225 185L771 -59.8709V-67L517 185H524.225Z" fill="black"></path> <path d="M543.225 185L790 -59.8709V-67L536 185H543.225Z" fill="black"></path> <path d="M98.1771 177L336 -59.8709V-67L91 177H98.1771Z" fill="black"></path> <path d="M298.677 174.5L534 -59.8709V-67L291.5 174.5H298.677Z" fill="black"></path> <path d="M120 174.081L353 -59.8709V-67L112.919 174.081H120Z" fill="black"></path> <path d="M326 164.225L552 -59.8709V-67L318.775 164.225H326Z" fill="black"></path> <path d="M114.629 196.5L371 -59.8709V-67L107.5 196.5H114.629Z" fill="black"></path> <path d="M331 177.225L570 -59.8709V-67L323.775 177.225H331Z" fill="black"></path> </g> </svg> 