<?xml version="1.0" encoding="UTF-8"?> <svg xmlns="http://www.w3.org/2000/svg" width="68" height="68" viewBox="0 0 68 68" fill="none"> <circle cx="34" cy="34" r="33.5" transform="rotate(90 34 34)" stroke="black"></circle> <path d="M28.3549 39C30.3567 39 31.9129 39.6966 33.0234 41.0897C34.134 42.469 34.6893 44.269 34.6893 46.4897C34.6893 48.7241 34.134 50.5379 33.0234 51.931C31.9129 53.3103 30.3567 54 28.3549 54C26.3394 54 24.7764 53.3103 23.6659 51.931C22.5553 50.5379 22 48.7241 22 46.4897C22 44.269 22.5553 42.469 23.6659 41.0897C24.7764 39.6966 26.3394 39 28.3549 39ZM28.3549 40.7379C26.9564 40.7379 25.8801 41.2621 25.126 42.3103C24.3857 43.3448 24.0155 44.7379 24.0155 46.4897C24.0155 47.7172 24.2006 48.7793 24.5708 49.6759L31.1519 41.8138C30.4115 41.0966 29.4792 40.7379 28.3549 40.7379ZM28.3549 52.2621C29.7534 52.2621 30.8229 51.7448 31.5632 50.7103C32.3036 49.6621 32.6738 48.2552 32.6738 46.4897C32.6738 45.2345 32.4887 44.1655 32.1185 43.2828L25.5374 51.1862C26.2777 51.9034 27.2169 52.2621 28.3549 52.2621Z" fill="black"></path> <path d="M37.609 53.7931C37.609 50.6759 38.2603 48.0966 39.5628 46.0552C40.8653 44 42.8328 42.3655 45.4653 41.1517V40.5931L44.1491 40.9448H35.2645V39.2069H46V42.4552C43.8337 43.5172 42.2364 44.9586 41.2081 46.7793C40.1935 48.5862 39.6862 50.9241 39.6862 53.7931H37.609Z" fill="black"></path> </svg> 