<?xml version="1.0" encoding="UTF-8"?> <svg xmlns="http://www.w3.org/2000/svg" width="32" height="173" viewBox="0 0 32 173" fill="none"> <path fill-rule="evenodd" clip-rule="evenodd" d="M16 69L32 85.1767L26.8308 90.5275L19.6923 83.3102L19.6923 118.5H12.3077V83.3102L5.29231 90.5275L0 85.1767L16 69Z" fill="black"></path> <path fill-rule="evenodd" clip-rule="evenodd" d="M16 132L32 148.177L26.8308 153.528L19.6923 146.31L19.6923 173H12.3077V146.31L5.29231 153.528L0 148.177L16 132Z" fill="black"></path> <path d="M16 0.704745L31.2947 15.8971L26.8266 20.441L20.0447 13.7044L19.1923 12.8577V14.0591L19.1923 55.5H12.8077V14.0591V12.8429L11.9523 13.7075L5.28923 20.442L0.709493 15.8929L16 0.704745Z" stroke="black"></path> </svg> 