<?xml version="1.0" encoding="UTF-8"?> <svg xmlns="http://www.w3.org/2000/svg" width="100" height="106" viewBox="0 0 100 106" fill="none"> <path d="M99.9839 36.4599C99.9785 36.445 99.9651 36.4396 99.9584 36.4302C99.9517 36.4167 99.9571 36.4019 99.949 36.3925L80.9351 10.1123C80.9337 10.1123 80.9337 10.1123 80.9337 10.111L80.931 10.1096C80.923 10.0988 80.9069 10.0988 80.8988 10.0881C80.8895 10.0786 80.8895 10.0624 80.8787 10.0557C80.8667 10.0476 80.8519 10.053 80.8412 10.0463C80.8398 10.0463 80.8398 10.0449 80.8398 10.0449C80.8264 10.0382 80.8237 10.0247 80.8116 10.0207H80.8103C80.809 10.0193 80.809 10.0193 80.8063 10.0193L50.047 0.013478C50.0349 0.00808693 50.0228 0.0175211 50.0121 0.0161733C49.9973 0.0134778 49.9879 0 49.9745 0C49.9611 0 49.9504 0.0134778 49.9369 0.0161733C49.9249 0.0175211 49.9128 0.00808693 49.9021 0.013478L19.187 10.0207C19.1736 10.0247 19.1696 10.0395 19.1588 10.0463C19.1454 10.053 19.1307 10.0476 19.1213 10.0557C19.1092 10.0638 19.1092 10.08 19.0998 10.0881C19.0904 10.0988 19.0743 10.0988 19.0676 10.1096L19.0663 10.111C19.0663 10.1123 19.0663 10.1123 19.0649 10.1123L0.0482966 36.3911C0.0402472 36.4019 0.0442719 36.4167 0.0389057 36.4289C0.0321979 36.441 0.0174401 36.445 0.0120738 36.4585C0.00804913 36.4706 0.0174404 36.4828 0.0160989 36.4936C0.0120742 36.5084 0 36.5178 0 36.5313V69.0044C0 69.0193 0.0120742 69.0287 0.0160989 69.0422C0.0174404 69.0543 0.00804913 69.0664 0.0120738 69.0772C0.0174401 69.0934 0.0321971 69.1015 0.0402465 69.115C0.0469543 69.1244 0.0415887 69.1365 0.0482966 69.1446L0.0496374 69.146C0.0496374 69.1473 0.0496379 69.1473 0.0509795 69.1473L19.0649 95.4261C19.0716 95.4356 19.0864 95.4329 19.0931 95.4409C19.1038 95.4531 19.1038 95.472 19.1186 95.4814C19.1334 95.4908 19.1494 95.4895 19.1655 95.4962C19.1736 95.5002 19.1763 95.5124 19.1857 95.5151L49.9007 105.548C49.9249 105.556 49.949 105.56 49.9745 105.56C50 105.56 50.0241 105.556 50.0483 105.548L80.813 95.5151C80.8237 95.5124 80.8277 95.4989 80.8371 95.4949C80.8519 95.4881 80.868 95.4895 80.8814 95.48C80.8935 95.4706 80.8935 95.4517 80.9056 95.4423C80.9136 95.4329 80.927 95.4356 80.9337 95.4261L99.9477 69.1473C99.949 69.1473 99.949 69.1473 99.949 69.146L99.9517 69.1446C99.9571 69.1352 99.953 69.1231 99.9598 69.115C99.9678 69.1001 99.9812 69.0921 99.9866 69.0772C99.9919 69.0651 99.9812 69.053 99.9839 69.0422C99.9866 69.0274 100 69.0179 100 69.0044V36.534C100 36.5192 99.9866 36.5097 99.9839 36.4963C99.9785 36.4841 99.9893 36.472 99.9839 36.4599ZM49.5828 52.6291L19.6364 62.4354L31.0665 27.0026L49.5828 52.6291ZM31.4556 26.7195H68.5176L49.9732 52.3447L31.4556 26.7195ZM49.7317 53.0927V84.7545L19.7853 62.8991L49.7317 53.0927ZM50.216 53.0927L80.212 62.8991L50.216 84.7545V53.0927ZM50.3636 52.6291L68.908 27.0026L80.3622 62.4381L50.3636 52.6291ZM31.5173 26.233L49.9732 5.26035L68.4518 26.233H31.5173ZM19.1964 62.2292L5.04159 38.088L30.5876 26.9136L19.1964 62.2292ZM49.4003 85.1103L22.1935 91.2009L19.5519 63.3276L49.4003 85.1103ZM80.4441 63.3276L77.7824 91.2009L50.5487 85.1103L80.4441 63.3276ZM69.3842 26.9136L94.9302 38.088L80.8023 62.2279L69.3842 26.9136ZM69.3601 26.3732L80.703 10.7107L94.7411 37.4747L69.3601 26.3732ZM68.9724 26.0888L50.6091 5.25226L80.3139 10.425L68.9724 26.0888ZM30.9995 26.0888L19.6807 10.425L49.3359 5.25226L30.9995 26.0888ZM30.6118 26.3732L5.23209 37.4747L19.293 10.7107L30.6118 26.3732ZM18.8999 62.678L0.536624 68.6567L4.83633 38.6918L18.8999 62.678ZM19.0475 63.139L21.6716 90.8329L0.68688 69.1177L19.0475 63.139ZM49.7317 85.5335V104.931L22.7006 91.585L49.7317 85.5335ZM50.216 85.5335L77.2713 91.5836L50.216 104.931V85.5335ZM80.9498 63.139L99.3104 69.1177L78.3016 90.8329L80.9498 63.139ZM81.0961 62.678L95.1355 38.6904L99.4594 68.6554L81.0961 62.678ZM95.3958 37.6809L82.5154 13.1205L99.3628 36.4059L95.3958 37.6809ZM50.216 4.69159V0.578194L77.4282 9.43034L50.216 4.69159ZM49.7317 4.69159L22.5651 9.43169L49.7317 0.579541V4.69159ZM4.57607 37.6796L0.633217 36.4059L17.4725 13.1354L4.57607 37.6796ZM0.485645 36.8669L4.4285 38.1419L0.485645 65.6189V36.8669ZM21.6622 91.5203L19.2595 94.8749L2.43225 71.6191L21.6622 91.5203ZM22.0539 91.8074L46.8299 104.038L19.6499 95.1606L22.0539 91.8074ZM77.9192 91.806L80.3475 95.1606L53.1164 104.041L77.9192 91.806ZM80.7379 94.8762L78.3096 91.5203L97.5745 71.6083L80.7379 94.8762ZM95.5447 38.1419L99.5117 36.8655V65.6377L95.5447 38.1419Z" fill="black"></path> </svg> 