<?xml version="1.0" encoding="UTF-8"?> <svg xmlns="http://www.w3.org/2000/svg" width="684" height="53" viewBox="0 0 684 53" fill="none"> <path d="M18.7505 53V0H14.272V53H18.7505ZM9.79347 53V0H0.836426V53H9.79347Z" fill="black"></path> <path d="M48.343 53V0H34.9074V53H48.343Z" fill="black"></path> <path d="M76.1861 53V0H62.7506V53H76.1861ZM85.1432 53V0H80.6646V53H85.1432Z" fill="black"></path> <path d="M119.398 53V0H114.919V53H119.398ZM110.441 53V0H97.0053V53H110.441Z" fill="black"></path> <path d="M149.174 53V0H140.217V53H149.174ZM135.739 53V0H131.26V53H135.739Z" fill="black"></path> <path d="M185.633 53V0H181.155V53H185.633ZM176.676 53V0H163.24V53H176.676Z" fill="black"></path> <path d="M210.931 53V0H197.495V53H210.931ZM219.888 53V0H215.409V53H219.888Z" fill="black"></path> <path d="M236.228 53V0H231.75V53H236.228ZM254.142 53V0H240.707V53H254.142Z" fill="black"></path> <path d="M302.779 53V0H289.343V53H302.779Z" fill="black"></path> <path d="M342.545 53V0H338.066V53H342.545ZM360.459 53V0H347.023V53H360.459ZM369.416 53V0H364.938V53H369.416Z" fill="black"></path> <path d="M385.669 53V0H381.191V53H385.669ZM399.105 53V0H394.626V53H399.105Z" fill="black"></path> <path d="M413.101 53V0H408.623V53H413.101ZM422.058 53V0H417.58V53H422.058ZM431.015 53V0H426.537V53H431.015Z" fill="black"></path> <path d="M473.24 53V0H464.283V53H473.24ZM486.675 53V0H482.197V53H486.675Z" fill="black"></path> <path d="M503.016 53V0H498.537V53H503.016ZM516.451 53V0H511.973V53H516.451Z" fill="black"></path> <path d="M543.883 53V0H539.405V53H543.883ZM534.926 53V0H525.969V53H534.926Z" fill="black"></path> <path d="M560.04 53V0H555.562V53H560.04Z" fill="black"></path> <path d="M581.148 53V0H572.191V53H581.148ZM594.584 53V0H585.627V53H594.584Z" fill="black"></path> <path d="M608.878 53V0H604.399V53H608.878ZM626.792 53V0H617.835V53H626.792Z" fill="black"></path> <path d="M643.132 53V0H638.654V53H643.132ZM656.568 53V0H652.089V53H656.568Z" fill="black"></path> <path d="M684 53V0H675.043V53H684ZM670.564 53V0H666.086V53H670.564Z" fill="black"></path> </svg> 